<?xml version="1.0" encoding="UTF-8"?> <svg xmlns="http://www.w3.org/2000/svg" width="306" height="32" viewBox="0 0 306 32" fill="none"><g clip-path="url(#clip0_704_225)"><path d="M0 0H18.308V6.09566H7.44737V12.5042H17.6431V18.6017H7.44737V32H0V0Z" fill="#3D6389"></path><path d="M30.8889 27.1703C33.791 27.1703 34.2155 24.4542 34.2155 16.0036C34.2155 7.55297 33.7893 4.83326 30.8889 4.83326C27.9884 4.83326 27.6489 7.55118 27.6489 16.0036C27.6489 24.456 28.0751 27.1703 30.8889 27.1703ZM30.9348 32C21.5085 32 20.228 25.7899 20.228 16C20.228 6.2101 21.5049 0 30.9348 0C41.0863 0 41.6381 7.46178 41.6381 16C41.6381 24.5382 41.0828 32 30.9313 32" fill="#3D6389"></path><path d="M56.9943 11.2992C56.9943 6.81465 56.4849 4.82985 54.0921 4.82985C51.2359 4.82985 50.9794 7.5889 50.9794 15.6551C50.9794 24.7977 51.2783 27.1705 54.2654 27.1705C56.9076 27.1705 57.2065 24.1092 57.2525 19.3225H64.1605V20.4007C64.1605 27.0435 62.3282 32.002 53.4572 32.002C44.5861 32.002 43.5586 25.0605 43.5586 15.7856C43.5586 7.89467 43.9848 0.00195312 54.1363 0.00195312C60.45 0.00195312 63.904 2.76101 63.904 10.01V11.3046H56.996V11.301L56.9943 11.2992Z" fill="#3D6389"></path><path d="M86.5149 21.0121C86.5149 27.1667 84.7764 32 76.2962 32C67.816 32 66.0811 27.1632 66.0811 21.0121V0H73.3852V23.1685C73.3852 25.6308 74.342 27.0809 76.2962 27.0809C78.2504 27.0809 79.2108 25.6308 79.2108 23.1685V0H86.5149V21.0121Z" fill="#3D6389"></path><path d="M95.347 22.0009V23.0791C95.347 25.409 95.9873 27.1775 98.4615 27.1775C100.936 27.1775 101.701 25.2785 101.701 23.5101C101.701 16.8654 88.6036 20.5758 88.6036 9.06035C88.6071 4.14126 91.2104 0 98.5888 0C105.967 0 108.314 3.66383 108.314 8.40948V9.1426H101.404C101.404 7.67635 101.231 6.59633 100.807 5.90612C100.38 5.173 99.6977 4.82789 98.6312 4.82789C96.8415 4.82789 95.775 5.90612 95.775 8.1502C95.775 14.5785 108.873 11.3402 108.873 22.2119C108.873 29.198 105.032 32.0018 98.4632 32.0018C93.2566 32.0018 88.4355 30.4086 88.4355 23.9803V21.9955H95.3453L95.3488 22.0027L95.347 22.0009Z" fill="#3D6389"></path><path d="M110.793 0.000244141H126.487V2.42134H113.63V14.0709H125.642V16.492H113.63V29.5791H126.885V32.0002H110.793V0.000244141Z" fill="#3D6389"></path><path d="M147.674 20.987C147.289 28.0554 144.07 32 138.582 32C132.322 32 128.806 27.1006 128.806 15.9982C128.806 4.89584 132.318 0 138.58 0C144.843 0 147.372 4.4667 147.372 9.53956H144.627C144.627 5.33035 142.526 2.34063 138.58 2.34063C134.209 2.34063 131.549 5.9848 131.549 16C131.549 26.0152 134.209 29.6594 138.58 29.6594C142.441 29.6594 144.627 26.3192 144.928 20.987H147.673V20.9835L147.674 20.987Z" fill="#3D6389"></path><path d="M159.373 29.6576C163.748 29.6576 166.407 26.0152 166.407 16C166.407 5.9848 163.747 2.34242 159.373 2.34242C154.999 2.34242 152.34 5.98659 152.34 16C152.34 26.0134 154.998 29.6576 159.373 29.6576ZM159.373 0C165.635 0 169.151 4.89763 169.151 16C169.151 27.1024 165.635 32 159.373 32C153.111 32 149.595 27.1024 149.595 16C149.595 4.89763 153.111 0 159.373 0Z" fill="#3D6389"></path><path d="M171.071 0.000244141H174.884L186.988 27.8751H187.077V0.000244141H189.913V32.0002H186.1L174 4.12541H173.91V32.0002H171.073V0.000244141H171.071Z" fill="#3D6389"></path><path d="M201.612 29.6576C205.988 29.6576 208.646 26.0152 208.646 16C208.646 5.9848 205.986 2.34242 201.612 2.34242C197.239 2.34242 194.582 5.98659 194.582 16C194.582 26.0134 197.239 29.6576 201.612 29.6576ZM201.612 0C207.875 0 211.391 4.89763 211.391 16C211.391 27.1024 207.875 32 201.612 32C195.35 32 191.834 27.1024 191.834 16C191.834 4.89763 195.353 0 201.612 0Z" fill="#3D6389"></path><path d="M213.312 0H218.232L225.861 28.4148H225.95L233.57 0H238.223V32H235.387V2.68753H235.298L227.099 32H224.439L216.238 2.68753H216.152V32H213.312V0Z" fill="#3D6389"></path><path d="M242.98 0H240.144V32H242.98V0Z" fill="#3D6389"></path><path d="M263.77 20.9873C263.384 28.0557 260.165 32.0002 254.677 32.0002C248.417 32.0002 244.901 27.1008 244.901 15.9985C244.901 4.89609 248.417 0.000244141 254.677 0.000244141C260.938 0.000244141 263.469 4.46694 263.469 9.53981H260.724C260.724 5.3306 258.623 2.34088 254.677 2.34088C250.306 2.34088 247.646 5.98505 247.646 16.0002C247.646 26.0154 250.306 29.6596 254.677 29.6596C258.538 29.6596 260.724 26.3194 261.025 20.9873H263.77Z" fill="#3D6389"></path><path d="M280.311 8.45954C280.311 4.64372 278.553 2.346 274.823 2.346C271.093 2.346 269.034 4.81717 269.034 7.8945C269.034 17.1301 283.871 12.0572 283.871 22.9396C283.871 28.9209 280.181 32 274.609 32C269.036 32 265.69 28.878 265.69 22.8073V21.8954H268.435V23.0648C268.435 27.0094 270.492 29.654 274.524 29.654C278.556 29.654 281.128 27.7014 281.128 23.3688C281.128 14.1761 266.288 19.4242 266.288 8.1949C266.288 3.34019 269.418 0 274.736 0C280.44 0 283.057 2.95038 283.057 8.45239H280.312V8.45954H280.311Z" fill="#3D6389"></path></g><defs><clipPath id="clip0_704_225"><rect width="306" height="32" fill="white"></rect></clipPath></defs></svg> 